<?xml version="1.0" encoding="UTF-8" standalone="no"?>
<svg
   xmlns:dc="http://purl.org/dc/elements/1.1/"
   xmlns:cc="http://creativecommons.org/ns#"
   xmlns:rdf="http://www.w3.org/1999/02/22-rdf-syntax-ns#"
   xmlns:svg="http://www.w3.org/2000/svg"
   xmlns="http://www.w3.org/2000/svg"
   viewBox="0 0 227.02667 229.89333"
   height="229.89333"
   width="227.02667"
   xml:space="preserve"
   id="svg2"
   version="1.1"><metadata
     id="metadata8"><rdf:RDF><cc:Work
         rdf:about=""><dc:format>image/svg+xml</dc:format><dc:type
           rdf:resource="http://purl.org/dc/dcmitype/StillImage" /></cc:Work></rdf:RDF></metadata><defs
     id="defs6" /><g
     transform="matrix(1.3333333,0,0,-1.3333333,0,229.89333)"
     id="g10"><g
       transform="scale(0.1)"
       id="g12"><path
         id="path14"
         style="fill:#245a7c;fill-opacity:1;fill-rule:nonzero;stroke:none"
         d="m 684.898,211.988 c 0,111.684 77.762,282.684 330.752,282.684 19.09,0 42.39,-1.434 83.34,-6.383 l -7.73,-57.961 c -45.28,4.953 -62.92,6.391 -85.5,6.391 -184.42,0 -252.28,-130.047 -252.28,-222.571 C 753.48,121.531 810.719,58 892.711,58 c 27.539,0 63.539,8.4492 92.519,23.3086 l 19.09,140.0434 h -68.59 l 6.93,57.418 H 1075.5 L 1043.2,42.4297 C 995.852,17.6719 952.02,0.03125 887.672,0.03125 751.32,0.03125 684.898,105.328 684.898,211.988" /><path
         id="path16"
         style="fill:#245a7c;fill-opacity:1;fill-rule:nonzero;stroke:none"
         d="m 1092.42,6.33984 69.93,481.94916 h 255.07 l -7.74,-57.238 h -192.96 l -21.16,-151.199 h 170.28 l -7.74,-57.243 h -171 L 1163.8,63.5781 h 253.62 l -8.47,-57.23826 h -316.53" /><path
         id="path18"
         style="fill:#245a7c;fill-opacity:1;fill-rule:nonzero;stroke:none"
         d="m 1436.22,6.33984 67.86,481.94916 h 63.64 L 1504.8,60.0703 h 197.92 l -7.84,-53.73046 h -258.66" /><path
         id="path20"
         style="fill:#245a7c;fill-opacity:1;fill-rule:nonzero;stroke:none"
         d="m 407.43,34.5898 9.898,70.7382 c 50.852,-35.3592 84.063,-45.9764 113.043,-45.9764 24.75,0 71.367,17.0078 71.367,62.1794 0,85.5 -163.168,115.199 -163.168,241.66 0,79.2 76.231,131.481 155.43,131.481 19.801,0 55.801,-4.942 88.289,-19.07 l -9.18,-65.711 c -29.609,19.078 -55.078,25.39 -84.781,25.39 -51.566,0 -84.777,-28.992 -84.777,-72.73 0,-77.762 163.258,-110.242 163.258,-235.34 0,-60.0313 -46.707,-127.17975 -142.739,-127.17975 -31.859,0 -74.968,9.91016 -116.64,34.55855" /><path
         id="path22"
         style="fill:#e2d313;fill-opacity:1;fill-rule:evenodd;stroke:none"
         d="M 0,370.359 H 270.188 V 640.55 H 0 Z" /><path
         id="path24"
         style="fill:#245a7c;fill-opacity:1;fill-rule:nonzero;stroke:none"
         d="m 1126.62,1035.04 v 366.12 H 933.031 v 146.07 h 512.279 v -512.19 h -318.69" /><path
         id="path26"
         style="fill:#e0eede;fill-opacity:1;fill-rule:nonzero;stroke:none"
         d="m 95.8516,1277.77 v 446.4 H 542.25 V 1401.16 H 418.051 V 1277.77 H 95.8516" /><path
         id="path28"
         style="fill:#d5e7b8;fill-opacity:1;fill-rule:nonzero;stroke:none"
         d="m 418.051,692.59 v 585.18 H 542.25 v 123.39 H 933.031 V 1035.04 H 1126.62 V 692.59 H 418.051" /><path
         id="path30"
         style="fill:#889bb0;fill-opacity:1;fill-rule:nonzero;stroke:none"
         d="m 933.031,1035.04 h 193.59 v 366.121 h -193.59 z" /><path
         id="path32"
         style="fill:#d5e6b8;fill-opacity:1;fill-rule:nonzero;stroke:none"
         d="m 933.031,1035.04 h 193.59 v 366.121 h -193.59 z" /><path
         id="path34"
         style="fill:#c6dfaa;fill-opacity:1;fill-rule:nonzero;stroke:none"
         d="M 418.051,1277.77 H 542.25 v 123.391 H 418.051 Z" /></g></g></svg>